<?xml version="1.0" encoding="UTF-8"?>
<svg width="418px" height="69px" viewBox="0 0 418 69" version="1.1" xmlns="http://www.w3.org/2000/svg" xmlns:xlink="http://www.w3.org/1999/xlink">
    <!-- Generator: Sketch 55.2 (78181) - https://sketchapp.com -->
    <title>AmplitudeJS-NoSlogan</title>
    <desc>Created with Sketch.</desc>
    <defs>
        <radialGradient cx="92.2656064%" cy="-110.465385%" fx="92.2656064%" fy="-110.465385%" r="136.924394%" gradientTransform="translate(0.922656,-1.104654),scale(0.165072,1.000000),translate(-0.922656,1.104654)" id="radialGradient-1">
            <stop stop-color="#3CD3AD" offset="0%"></stop>
            <stop stop-color="#4CB8C4" offset="100%"></stop>
        </radialGradient>
    </defs>
    <g id="AmplitudeJS-NoSlogan" stroke="none" stroke-width="1" fill="none" fill-rule="evenodd">
        <path d="M35.0039363,0 L0,67.4340096 L2.437835,67.4340096 L56.6027625,40.2406056 L71.6046929,67.543051 L74.0416759,67.543051 L37.4417713,0 L35.0039363,0 Z M28.7410607,30.4526286 L35.4521367,30.4526286 L35.4521367,23.6894799 L37.0319151,23.6894799 L37.0319151,30.4526286 L43.7429911,30.4526286 L43.7429911,32.0453213 L37.0319151,32.0453213 L37.0319151,38.8076114 L35.4521367,38.8076114 L35.4521367,32.0453213 L28.7410607,32.0453213 L28.7410607,30.4526286 Z M72.4855004,48.738115 L95.593381,12.0864344 L98.453854,12.0864344 L98.453854,67.6864363 L96.494042,67.6864363 L96.494042,14.7266123 L73.4347308,51.2580898 L71.5030384,51.2580898 L71.4425399,51.1447552 L50.0337302,12.0864344 L52.7766141,12.0864344 L52.8362605,12.201486 L72.4855004,48.738115 Z M125.619823,12.0859192 C136.488255,12.0859192 142.473349,17.5130949 142.473349,27.3680421 C142.473349,36.7473281 135.721372,42.5737501 124.85294,42.5737501 L105.204552,42.5737501 L105.204552,67.6867797 L103.244741,67.6867797 L103.244741,12.0859192 L125.619823,12.0859192 Z M300.157817,12.0859192 C307.231884,12.0859192 323.684075,14.7947847 323.684075,39.8863495 C323.684075,49.1660385 321.003394,56.3559086 315.717015,61.2550485 C311.17707,65.4621615 304.974692,67.6867797 297.781332,67.6867797 L280.77443,67.6867797 L280.77443,12.0859192 L300.157817,12.0859192 Z M400.019156,57.4565408 C400.019156,61.2893065 402.982732,62.7832609 406.346791,62.7832609 C408.549448,62.7832609 411.912655,62.1375979 411.912655,59.1917602 C411.912655,56.0845068 407.628337,55.5599056 403.423263,54.4299953 C399.178141,53.300085 394.892971,51.6455734 394.892971,46.239004 C394.892971,40.3473288 400.419639,37.522553 405.585021,37.522553 C411.55222,37.522553 417.03884,40.1455591 417.03884,46.8039592 L410.951496,46.8039592 C410.751254,43.3335204 408.309159,42.4457337 405.305534,42.4457337 C403.303118,42.4457337 400.980316,43.2931664 400.980316,45.7144028 C400.980316,47.9338696 402.341959,48.2163472 409.510608,50.0717698 C411.592269,50.596371 418,51.928051 418,58.4653893 C418,63.7517554 413.875023,67.705583 406.106501,67.705583 C399.778866,67.705583 393.852567,64.5579757 393.931811,57.4565408 L400.019156,57.4565408 Z M149.222939,12.0860909 L149.222939,65.7121841 L181.199393,65.7121841 L181.199393,67.6860928 L147.262276,67.6860928 L147.262276,12.0860909 L149.222939,12.0860909 Z M274.026032,46.9178089 L274.026032,12.0863484 L275.984991,12.0863484 L275.984991,46.9178089 C275.984991,61.3636608 268.964606,69 255.681345,69 C242.397232,69 235.375994,61.3636608 235.375994,46.9178089 L235.375994,12.0863484 L237.335806,12.0863484 L237.335806,46.9178089 C237.335806,60.2603669 243.50836,67.0252327 255.681345,67.0252327 C267.85433,67.0252327 274.026032,60.2603669 274.026032,46.9178089 Z M390.206806,57.9407881 C390.206806,61.6533505 389.205598,67.705583 380.675306,67.705583 C375.910408,67.705583 371.265655,65.0825769 371.265655,58.7882208 L371.265655,56.2862766 L376.951664,56.2862766 L376.951664,57.5776026 C376.951664,60.3620245 377.632486,62.3788629 380.596062,62.3788629 C383.91922,62.3788629 383.91922,59.6760075 383.91922,57.6583105 L383.91922,38.2094286 L390.206806,38.2094286 L390.206806,57.9407881 Z M330.894903,65.7117549 L366.015576,65.7117549 L366.015576,67.6865221 L328.934239,67.6865221 L328.934239,12.0856616 L365.708823,12.0856616 L365.708823,14.0604289 L330.894903,14.0604289 L330.894903,37.7396057 L363.639091,37.7396057 L363.639091,39.7143729 L330.894903,39.7143729 L330.894903,65.7117549 Z M184.148483,67.6861788 L184.148483,12.0861768 L186.109147,12.0861768 L186.109147,67.6861788 L184.148483,67.6861788 Z M190.053395,14.0606864 L190.053395,12.0859192 L231.430127,12.0859192 L231.430127,14.0606864 L211.722093,14.0606864 L211.722093,67.6867797 L209.761429,67.6867797 L209.761429,14.0606864 L190.053395,14.0606864 Z M105.204552,14.0606864 L105.204552,40.5989829 L125.619823,40.5989829 C134.667335,40.5989829 140.513537,35.4053449 140.513537,27.3680421 C140.513537,18.6627528 135.363494,14.0606864 125.619823,14.0606864 L105.204552,14.0606864 Z M299.775228,14.0606864 L282.735093,14.0606864 L282.735093,65.7120125 L298.163922,65.7120125 C309.554687,65.7120125 321.725116,58.927399 321.725116,39.8863495 C321.725116,18.5408324 309.789012,14.0606864 299.775228,14.0606864 Z" id="AmplitudeJS" fill="url(#radialGradient-1)" fill-rule="nonzero"></path>
    </g>
</svg>