<svg width="194" height="32" viewBox="0 0 194 32" fill="none" xmlns="http://www.w3.org/2000/svg">
<path d="M110.068 21.7588C110.068 27.9466 112.932 31.084 118.577 31.084C124.222 31.0839 127.085 27.9465 127.085 21.7588V5.60547H127.993V21.7588C127.993 28.4582 124.737 31.9999 118.577 32C112.416 32 109.16 28.4583 109.16 21.7588V5.60547H110.068V21.7588ZM180.966 26.8711C180.966 28.5929 180.501 31.3994 176.545 31.3994C174.335 31.3994 172.182 30.1827 172.182 27.2637V26.1035H174.818V26.7031C174.818 27.9942 175.135 28.9297 176.509 28.9297C178.049 28.9294 178.05 27.6759 178.05 26.7402V17.7207H180.966V26.8711ZM188.098 17.4014C190.865 17.4014 193.409 18.6183 193.409 21.7061H190.586C190.493 20.0967 189.361 19.6846 187.968 19.6846C187.039 19.6846 185.962 20.0783 185.962 21.2012C185.962 22.2302 186.594 22.3613 189.918 23.2217C190.883 23.465 193.855 24.0826 193.855 27.1143C193.855 29.5659 191.942 31.3994 188.339 31.3994C185.404 31.3993 182.657 29.9398 182.693 26.6465H185.517C185.517 28.424 186.891 29.1172 188.451 29.1172C189.473 29.1171 191.032 28.8172 191.032 27.4512C191.032 26.0102 189.045 25.7672 187.095 25.2432C185.126 24.7192 183.139 23.9516 183.139 21.4443C183.139 18.712 185.702 17.4014 188.098 17.4014ZM24.5039 5.6582L33.6162 22.6035L44.333 5.60547H45.6602V31.3906H44.751V6.83008L34.0566 23.7715H33.1611L33.1328 23.7197L23.2041 5.60547H24.4766L24.5039 5.6582ZM58.2588 5.60547C63.299 5.60557 66.0742 8.1221 66.0742 12.6924C66.0742 17.0422 62.9428 19.7441 57.9023 19.7441H48.791V31.3906H47.8818V5.60547H58.2588ZM69.2051 30.4756H84.0342V31.3906H68.2959V5.60547H69.2051V30.4756ZM86.3115 31.3906H85.4023V5.60547H86.3115V31.3906ZM107.33 6.52051H98.1904V31.3906H97.2803V6.52051H88.1406V5.60547H107.33V6.52051ZM139.204 5.60547C142.485 5.60559 150.114 6.86192 150.114 18.498C150.114 22.8015 148.871 26.1361 146.42 28.4082C144.314 30.3593 141.438 31.3906 138.102 31.3906H130.214V5.60547H139.204ZM169.604 6.52051H153.459V17.502H168.645V18.418H153.459V30.4746H169.746V31.3906H152.549V5.60449H169.604V6.52051ZM34.3379 31.3242H33.208L26.251 18.6621L1.13086 31.2734H0L16.2334 0H17.3643L34.3379 31.3242ZM131.124 6.52051V30.4756H138.279C143.562 30.4754 149.206 27.3285 149.206 18.498C149.206 8.59878 143.67 6.52055 139.026 6.52051H131.124ZM48.791 18.8281H58.2588C62.4546 18.828 65.166 16.4197 65.166 12.6924C65.166 8.65526 62.7774 6.5206 58.2588 6.52051H48.791V18.8281ZM16.4414 14.123H13.3291V14.8613H16.4414V17.998H17.1738V14.8613H20.2861V14.123H17.1738V10.9863H16.4414V14.123Z" fill="white"/>
</svg>
