<svg xmlns="http://www.w3.org/2000/svg" width="294" height="46" viewBox="0 0 294 46" fill="none">
  <path d="M71.6073 29.6347C71.0348 29.6325 70.4814 29.8409 70.0526 30.2203C67.9279 32.0134 65.8394 33.0136 62.756 33.0136C57.1695 33.0136 53.1274 28.3858 53.1274 22.6491V22.5661C53.1274 16.8657 57.211 12.269 62.756 12.269C65.3175 12.2736 67.7903 13.2071 69.7158 14.8964C70.4854 15.4621 71.5057 15.5534 72.3635 15.1332C73.2213 14.713 73.7746 13.8509 73.7994 12.896C73.8031 12.0966 73.4331 11.3413 72.7992 10.8542C70.2547 8.89534 67.2957 7.55832 62.7923 7.55832C53.9565 7.55832 47.7637 14.3574 47.7637 22.6542V22.7372C47.7637 31.1169 54.1016 37.7657 62.6057 37.7657C67.3164 37.7657 70.4413 36.2628 73.1931 33.8479C73.7197 33.3831 74.0232 32.7158 74.0274 32.0134C73.9939 30.6977 72.9234 29.6455 71.6073 29.6347ZM90.7039 20.3378C85.076 19.0059 83.739 18.0006 83.739 15.7515V15.6686C83.739 13.7511 85.4906 12.2068 88.4911 12.2068C90.7868 12.2068 92.953 12.9582 95.228 14.4144C95.6275 14.6628 96.0895 14.7922 96.5599 14.7876C97.1975 14.7973 97.8124 14.5511 98.2671 14.1041C98.7219 13.6571 98.9787 13.0466 98.98 12.4089C98.9998 11.5755 98.5704 10.7958 97.8554 10.3671C95.1206 8.53708 91.8898 7.591 88.5999 7.65678C82.8061 7.65678 78.6344 11.1185 78.6344 16.1194V16.2023C78.6344 21.5815 82.1376 23.416 88.346 24.9189C93.7666 26.1678 94.9326 27.2975 94.9326 29.3808V29.4637C94.9326 31.6299 92.9323 33.1328 89.7504 33.1328C86.7571 33.1306 83.8615 32.0674 81.578 30.1322C80.8364 29.6054 79.8661 29.5263 79.049 29.9262C78.2319 30.3261 77.6991 31.1408 77.6602 32.0497C77.6579 32.8258 78.0304 33.5553 78.6603 34.0086C81.8183 36.3935 85.6687 37.6818 89.626 37.6776C95.7566 37.6776 100.048 34.4231 100.048 28.961V28.8781C100.042 24.0483 96.8708 21.8354 90.7039 20.3378ZM116.553 20.3378C110.925 19.0059 109.593 18.0006 109.593 15.7515V15.6686C109.593 13.7511 111.345 12.2068 114.345 12.2068C116.636 12.2068 118.807 12.9582 121.082 14.4144C121.482 14.6628 121.944 14.7922 122.414 14.7876C123.052 14.7973 123.667 14.5511 124.121 14.1041C124.576 13.6571 124.833 13.0466 124.834 12.4089C124.854 11.5755 124.425 10.7958 123.71 10.3671C120.966 8.53278 117.723 7.58824 114.423 7.66197C108.629 7.66197 104.458 11.1237 104.458 16.1246V16.2075C104.458 21.5867 107.961 23.4212 114.169 24.9241C119.59 26.173 120.756 27.3027 120.756 29.386V29.4689C120.756 31.6351 118.755 33.1379 115.574 33.1379C112.58 33.1357 109.685 32.0726 107.401 30.1374C106.66 29.6105 105.689 29.5315 104.872 29.9314C104.055 30.3312 103.522 31.146 103.483 32.0549C103.481 32.831 103.854 33.5605 104.484 34.0137C107.641 36.3986 111.492 37.687 115.449 37.6828C121.58 37.6828 125.871 34.4283 125.871 28.9662V28.8833C125.886 24.0483 122.72 21.8354 116.548 20.3378H116.553ZM140.194 22.0065H132.349C130.978 22.0065 129.866 23.1178 129.866 24.4888C129.866 25.8597 130.978 26.9711 132.349 26.9711H140.184C141.555 26.9711 142.666 25.8597 142.666 24.4888C142.666 23.1178 141.555 22.0065 140.184 22.0065H140.194ZM163.81 8.07655H144.439C143.17 8.13583 142.171 9.18207 142.171 10.4526C142.171 11.7232 143.17 12.7694 144.439 12.8287H151.528V34.931C151.528 36.362 152.688 37.5221 154.119 37.5221C155.55 37.5221 156.71 36.362 156.71 34.931V12.8287H163.81C165.079 12.7694 166.078 11.7232 166.078 10.4526C166.078 9.18207 165.079 8.13583 163.81 8.07655ZM173.537 8.07655C172.846 8.06376 172.18 8.33264 171.691 8.82137C171.202 9.31011 170.933 9.97662 170.946 10.6677V34.9362C171.008 36.3067 172.137 37.3861 173.509 37.3861C174.881 37.3861 176.01 36.3067 176.071 34.9362V27.0902H182.534L189.623 36.1385C190.171 36.9857 191.117 37.4909 192.126 37.4755C192.768 37.4866 193.388 37.2422 193.849 36.7961C194.311 36.35 194.577 35.7387 194.587 35.0968C194.561 34.3633 194.263 33.6656 193.753 33.1379L188.167 26.0901C192.084 24.8826 194.795 22.0427 194.795 17.3735V17.2906C194.855 14.9538 193.985 12.6888 192.375 10.9942C190.504 9.15964 187.648 8.07655 183.959 8.07655H173.537ZM189.587 17.6637C189.587 20.6228 187.249 22.5402 183.585 22.5402H176.082V12.7458H183.544C187.337 12.7458 189.592 14.4559 189.592 17.5808L189.587 17.6637ZM203.579 7.86407C202.895 7.84868 202.234 8.11029 201.746 8.58946C201.258 9.06863 200.985 9.72468 200.987 10.4086V34.9258C201.049 36.2963 202.178 37.3758 203.55 37.3758C204.922 37.3758 206.051 36.2963 206.113 34.9258V10.4086C206.116 9.73063 205.846 9.07994 205.365 8.60252C204.883 8.1251 204.231 7.86092 203.553 7.86926L203.579 7.86407ZM236.056 29.6296C235.483 29.6273 234.93 29.8357 234.501 30.2151C232.376 32.0082 230.288 33.0084 227.205 33.0084C221.618 33.0084 217.576 28.3806 217.576 22.6439V22.561C217.576 16.8605 221.66 12.2638 227.205 12.2638C229.768 12.2672 232.243 13.2008 234.17 14.8912C234.939 15.4569 235.959 15.5482 236.817 15.128C237.675 14.7078 238.228 13.8457 238.253 12.8909C238.257 12.0914 237.887 11.3362 237.253 10.8491C234.708 8.89016 231.749 7.55314 227.246 7.55314C218.405 7.55314 212.217 14.3523 212.217 22.6491V22.732C212.217 31.1117 218.555 37.7605 227.059 37.7605C231.77 37.7605 234.895 36.2577 237.647 33.8427C238.173 33.3779 238.477 32.7106 238.481 32.0082C238.445 30.6825 237.356 29.6286 236.03 29.6347L236.056 29.6296ZM257.303 20.913L266.393 12.155C266.969 11.6848 267.306 10.9816 267.31 10.2375C267.318 9.60505 267.071 8.99592 266.624 8.54814C266.178 8.10037 265.569 7.85185 264.937 7.85889C264.12 7.83977 263.338 8.1924 262.812 8.81761L248.954 22.7527V10.4086C248.954 8.99183 247.806 7.84335 246.389 7.84335C244.973 7.84335 243.824 8.99183 243.824 10.4086V34.9258C243.824 36.3426 244.973 37.491 246.389 37.491C247.806 37.491 248.954 36.3426 248.954 34.9258V28.8833L253.707 24.297L263.086 36.2628C263.557 37.0072 264.372 37.4619 265.253 37.4703C265.932 37.4942 266.591 37.2411 267.08 36.7691C267.568 36.2971 267.844 35.6467 267.844 34.9673C267.839 34.2896 267.586 33.6372 267.134 33.1328L257.303 20.913ZM284.147 20.3274C278.519 18.9956 277.187 17.9902 277.187 15.7411V15.6582C277.187 13.7408 278.939 12.1964 281.94 12.1964C284.23 12.1964 286.401 12.9479 288.676 14.4041C289.076 14.6524 289.538 14.7818 290.008 14.7772C290.646 14.7869 291.261 14.5408 291.716 14.0938C292.17 13.6468 292.427 13.0362 292.428 12.3985C292.44 11.5686 292.008 10.7956 291.294 10.3723C288.559 8.54226 285.328 7.59618 282.038 7.66197C276.244 7.66197 272.073 11.1237 272.073 16.1246V16.2075C272.073 21.5867 275.576 23.4212 281.784 24.9241C287.205 26.173 288.371 27.3027 288.371 29.386V29.4689C288.371 31.6351 286.37 33.1379 283.188 33.1379C280.195 33.1357 277.3 32.0726 275.016 30.1374C274.275 29.6105 273.304 29.5315 272.487 29.9314C271.67 30.3312 271.137 31.146 271.098 32.0549C271.096 32.831 271.468 33.5605 272.098 34.0137C275.256 36.3986 279.107 37.687 283.064 37.6828C289.195 37.6828 293.486 34.4283 293.486 28.9662V28.8833C293.475 24.0483 290.309 21.8354 284.137 20.3378L284.147 20.3274Z" fill="white"/>
  <path d="M19.1053 27.8769L8.86043 35.4309C7.62799 36.2544 6.67174 36.8038 5.44278 36.8038C2.98369 36.8038 0.934265 34.6062 0.934265 32.138C0.934265 30.078 2.57404 28.5675 4.07688 27.8816L16.0996 22.6629L4.07688 17.3078C2.4371 16.6207 0.934265 15.1102 0.934265 13.0502C0.934265 10.5785 3.12063 8.51857 5.57623 8.51857C6.80636 8.51857 7.62566 8.93033 8.85463 9.89148L19.1053 17.4407L17.7382 5.21869C17.3285 2.33523 19.2468 0 21.974 0C24.7011 0 26.616 2.19759 26.2098 5.08105L24.8427 17.4407L35.0876 9.88681C36.3177 8.92566 37.2739 8.5139 38.504 8.5139C40.9848 8.53607 42.9905 10.552 43.0126 13.0456C43.0126 15.2431 41.5097 16.6161 39.8699 17.3031L27.8496 22.6583L39.8734 27.8769C41.5132 28.5628 43.016 30.0734 43.016 32.2709C43.016 34.7427 40.8297 36.8026 38.3741 36.8026C37.2809 36.8026 36.3246 36.2532 35.0945 35.4297L24.8474 27.8769L26.2098 40.099C26.616 42.9859 24.707 45.3188 21.974 45.3188C19.241 45.3188 17.332 43.1213 17.7382 40.2378L19.1053 27.8769Z" fill="#F18F35"/>
</svg>