<svg xmlns="http://www.w3.org/2000/svg" width="18" height="14" viewBox="0 0 18 14" fill="none">
<path d="M15.5826 2.2486C14.3784 1.23041 12.9335 0.721323 11.4083 0.636475L11.1674 0.89102C12.5321 1.23041 13.7362 1.9092 14.8601 2.84254C13.4954 2.0789 11.9702 1.56981 10.3647 1.40011C9.88303 1.31526 9.48165 1.31526 9 1.31526C8.51835 1.31526 8.11697 1.31526 7.63532 1.40011C6.02982 1.56981 4.50459 2.0789 3.13991 2.84254C4.26376 1.9092 5.46789 1.23041 6.83257 0.89102L6.59174 0.636475C5.06651 0.721323 3.62156 1.23041 2.41743 2.2486C1.05275 4.96375 0.330275 8.01829 0.25 11.1577C1.45413 12.5153 3.13991 13.3637 4.90596 13.3637C4.90596 13.3637 5.46789 12.685 5.86927 12.091C4.82569 11.8365 3.86239 11.2425 3.22018 10.3092C3.78211 10.6486 4.34404 10.988 4.90596 11.2425C5.62844 11.5819 6.35092 11.7516 7.07339 11.9213C7.7156 12.0062 8.3578 12.091 9 12.091C9.6422 12.091 10.2844 12.0062 10.9266 11.9213C11.6491 11.7516 12.3716 11.5819 13.094 11.2425C13.656 10.988 14.2179 10.6486 14.7798 10.3092C14.1376 11.2425 13.1743 11.8365 12.1307 12.091C12.5321 12.685 13.094 13.3637 13.094 13.3637C14.8601 13.3637 16.5459 12.5153 17.75 11.1577C17.6697 8.01829 16.9472 4.96375 15.5826 2.2486ZM6.35092 9.63041C5.54817 9.63041 4.82569 8.86678 4.82569 7.93344C4.82569 7.00011 5.54817 6.23647 6.35092 6.23647C7.15367 6.23647 7.87615 7.00011 7.87615 7.93344C7.87615 8.86678 7.15367 9.63041 6.35092 9.63041ZM11.6491 9.63041C10.8463 9.63041 10.1239 8.86678 10.1239 7.93344C10.1239 7.00011 10.8463 6.23647 11.6491 6.23647C12.4518 6.23647 13.1743 7.00011 13.1743 7.93344C13.1743 8.86678 12.4518 9.63041 11.6491 9.63041Z" fill="#CECFD2"/>
</svg>