<svg xmlns="http://www.w3.org/2000/svg" width="261" height="48" viewBox="0 0 261 48" fill="none">
  <path fill-rule="evenodd" clip-rule="evenodd" d="M25.0907 0C11.5041 0 0.485596 11.017 0.485596 24.6081C0.485596 35.4801 7.5357 44.7025 17.314 47.9564C18.5452 48.183 18.9938 47.4231 18.9938 46.7705C18.9938 46.1874 18.9727 44.6391 18.9606 42.5861C12.1159 44.0726 10.6718 39.2869 10.6718 39.2869C9.55238 36.4439 7.93903 35.6871 7.93903 35.6871C5.70481 34.1613 8.10822 34.1916 8.10822 34.1916C10.5781 34.3653 11.8772 36.7279 11.8772 36.7279C14.0722 40.4878 17.6373 39.4017 19.0391 38.7718C19.2627 37.1826 19.8987 36.098 20.6011 35.4831C15.1372 34.8623 9.39226 32.7504 9.39226 23.3211C9.39226 20.6352 10.3515 18.4372 11.9256 16.7181C11.6718 16.0957 10.8274 13.5926 12.1673 10.2058C12.1673 10.2058 14.2323 9.54415 18.9334 12.7285C20.8957 12.1817 23.0015 11.9098 25.0937 11.8992C27.1844 11.9098 29.2887 12.1817 31.2541 12.7285C35.9521 9.54415 38.0141 10.2058 38.0141 10.2058C39.3571 13.5926 38.5126 16.0957 38.2604 16.7181C39.8374 18.4372 40.7891 20.6352 40.7891 23.3211C40.7891 32.7746 35.0352 34.8547 29.5546 35.4635C30.4368 36.2233 31.2238 37.7249 31.2238 40.0211C31.2238 43.3097 31.1936 45.9639 31.1936 46.7705C31.1936 47.4292 31.6378 48.1951 32.8855 47.9549C42.6563 44.6934 49.7003 35.4771 49.7003 24.6081C49.7003 11.017 38.6818 0 25.0907 0Z" fill="white"/>
  <path d="M73.9753 21.1134H69.408V34.7444H67.2837V21.1134H62.7164V19.3195H73.9753V21.1134ZM86.4025 34.7444H84.349V27.1795C84.349 26.2668 84.1779 25.5843 83.8357 25.1319C83.4934 24.6795 83.0036 24.4533 82.3663 24.4533C82.091 24.4533 81.8333 24.4907 81.5933 24.5654C81.3534 24.6402 81.1036 24.77 80.8439 24.9549C80.5843 25.1398 80.301 25.3896 79.9942 25.7043C79.6873 26.019 79.3333 26.4124 78.932 26.8845V34.7444H76.8785V18.0685H78.932V22.8955L78.8612 24.7601C79.1838 24.3746 79.5005 24.0501 79.8113 23.7865C80.122 23.5229 80.4328 23.3085 80.7436 23.1433C81.0544 22.9781 81.3711 22.86 81.6936 22.7892C82.0162 22.7184 82.3506 22.683 82.6968 22.683C83.877 22.683 84.7896 23.043 85.4348 23.7629C86.08 24.4828 86.4025 25.5666 86.4025 27.0143V34.7444ZM100.175 28.1945C100.175 28.4856 100.171 28.7295 100.163 28.9262C100.156 29.1229 100.144 29.3078 100.128 29.4808H91.8078C91.8078 30.6925 92.1461 31.6229 92.8227 32.272C93.4994 32.9211 94.475 33.2456 95.7496 33.2456C96.0957 33.2456 96.4419 33.2318 96.7881 33.2043C97.1343 33.1768 97.4687 33.1394 97.7913 33.0922C98.1138 33.045 98.4227 32.9919 98.7177 32.9329C99.0127 32.8739 99.2862 32.8089 99.5379 32.7381V34.4258C98.9793 34.5831 98.3479 34.711 97.6437 34.8093C96.9396 34.9077 96.2098 34.9569 95.4545 34.9569C94.4396 34.9569 93.5662 34.8192 92.8345 34.5438C92.1028 34.2684 91.5029 33.8691 91.0347 33.3459C90.5666 32.8227 90.2204 32.1815 89.9962 31.4222C89.772 30.663 89.6598 29.8034 89.6598 28.8436C89.6598 28.0096 89.7798 27.2208 90.0198 26.4773C90.2598 25.7338 90.6099 25.0808 91.0702 24.5182C91.5304 23.9556 92.0949 23.5091 92.7637 23.1787C93.4325 22.8482 94.1917 22.683 95.0415 22.683C95.8676 22.683 96.5993 22.8128 97.2366 23.0725C97.8739 23.3321 98.4109 23.6999 98.8475 24.1759C99.2842 24.652 99.6146 25.2302 99.8389 25.9108C100.063 26.5914 100.175 27.3526 100.175 28.1945ZM98.0391 27.8994C98.0627 27.3723 98.0116 26.8904 97.8857 26.4537C97.7598 26.017 97.5651 25.6413 97.3015 25.3266C97.0379 25.0119 96.7094 24.766 96.316 24.589C95.9226 24.412 95.4663 24.3235 94.947 24.3235C94.4986 24.3235 94.0894 24.41 93.7197 24.5831C93.3499 24.7562 93.0312 25.0001 92.7637 25.3148C92.4962 25.6295 92.2798 26.0072 92.1146 26.4478C91.9494 26.8884 91.8471 27.3723 91.8078 27.8994H98.0391ZM126.729 21.9631C126.155 21.6563 125.565 21.4183 124.959 21.2491C124.353 21.0799 123.692 20.9954 122.976 20.9954C122.158 20.9954 121.43 21.1409 120.793 21.432C120.156 21.7231 119.619 22.1342 119.182 22.6653C118.745 23.1964 118.411 23.8357 118.179 24.5831C117.947 25.3306 117.831 26.1567 117.831 27.0615C117.831 28.0056 117.925 28.8514 118.114 29.5989C118.303 30.3463 118.598 30.9797 118.999 31.499C119.4 32.0182 119.914 32.4156 120.539 32.6909C121.165 32.9663 121.914 33.104 122.787 33.104C122.937 33.104 123.098 33.0961 123.271 33.0804C123.444 33.0647 123.617 33.043 123.791 33.0155C123.964 32.9879 124.131 32.9545 124.292 32.9152C124.453 32.8758 124.597 32.8326 124.723 32.7853V27.8758H121.572V26.1409H126.8V34.0245C126.477 34.174 126.137 34.3078 125.779 34.4258C125.421 34.5438 125.055 34.6422 124.682 34.7208C124.308 34.7995 123.936 34.8585 123.566 34.8979C123.197 34.9372 122.839 34.9569 122.492 34.9569C121.438 34.9569 120.488 34.7916 119.642 34.4612C118.796 34.1307 118.077 33.641 117.483 32.9919C116.889 32.3428 116.432 31.5344 116.114 30.5666C115.795 29.5989 115.636 28.4777 115.636 27.2031C115.636 25.9364 115.813 24.8014 116.167 23.7983C116.521 22.7951 117.018 21.9454 117.66 21.2491C118.301 20.5528 119.072 20.0217 119.973 19.6559C120.874 19.29 121.867 19.1071 122.953 19.1071C123.645 19.1071 124.304 19.1681 124.929 19.29C125.555 19.412 126.155 19.6067 126.729 19.8742V21.9631ZM134.07 24.5949H130.565V22.8955H136.147V33.0332H139.676V34.7444H130.175V33.0332H134.07V24.5949ZM134.79 17.9269C135.018 17.9269 135.23 17.9682 135.427 18.0508C135.624 18.1334 135.795 18.2495 135.941 18.399C136.086 18.5485 136.2 18.7196 136.283 18.9124C136.365 19.1051 136.407 19.3156 136.407 19.5437C136.407 19.764 136.365 19.9725 136.283 20.1692C136.2 20.3659 136.086 20.539 135.941 20.6885C135.795 20.838 135.624 20.9541 135.427 21.0367C135.23 21.1193 135.018 21.1606 134.79 21.1606C134.562 21.1606 134.349 21.1193 134.153 21.0367C133.956 20.9541 133.785 20.838 133.639 20.6885C133.494 20.539 133.38 20.3659 133.297 20.1692C133.214 19.9725 133.173 19.764 133.173 19.5437C133.173 19.3156 133.214 19.1051 133.297 18.9124C133.38 18.7196 133.494 18.5485 133.639 18.399C133.785 18.2495 133.956 18.1334 134.153 18.0508C134.349 17.9682 134.562 17.9269 134.79 17.9269ZM152.87 34.5792C152.406 34.6972 151.926 34.7818 151.43 34.833C150.935 34.8841 150.431 34.9097 149.92 34.9097C148.433 34.9097 147.323 34.5733 146.592 33.9006C145.86 33.2279 145.494 32.1953 145.494 30.8026V24.6185H142.178V22.8955H145.494V19.6382L147.548 19.1071V22.8955H152.87V24.6185H147.548V30.6374C147.548 31.4872 147.774 32.1225 148.226 32.5434C148.679 32.9643 149.345 33.1748 150.227 33.1748C150.604 33.1748 151.017 33.1453 151.466 33.0863C151.914 33.0273 152.382 32.9348 152.87 32.8089V34.5792ZM166.135 34.7444H164.082V27.1795C164.082 26.2668 163.911 25.5843 163.568 25.1319C163.226 24.6795 162.736 24.4533 162.099 24.4533C161.824 24.4533 161.566 24.4907 161.326 24.5654C161.086 24.6402 160.836 24.77 160.577 24.9549C160.317 25.1398 160.034 25.3896 159.727 25.7043C159.42 26.019 159.066 26.4124 158.665 26.8845V34.7444H156.611V18.0685H158.665V22.8955L158.594 24.7601C158.917 24.3746 159.233 24.0501 159.544 23.7865C159.855 23.5229 160.166 23.3085 160.476 23.1433C160.787 22.9781 161.104 22.86 161.426 22.7892C161.749 22.7184 162.083 22.683 162.43 22.683C163.61 22.683 164.522 23.043 165.168 23.7629C165.813 24.4828 166.135 25.5666 166.135 27.0143V34.7444ZM179.424 34.7444H177.583L177.512 32.8326C177.158 33.2417 176.822 33.582 176.503 33.8534C176.185 34.1248 175.868 34.3432 175.553 34.5084C175.238 34.6736 174.922 34.7897 174.603 34.8566C174.285 34.9234 173.948 34.9569 173.594 34.9569C172.375 34.9569 171.454 34.5989 170.832 33.8829C170.211 33.1669 169.9 32.0851 169.9 30.6374V22.8955H171.954V30.4722C171.954 32.2897 172.638 33.1984 174.007 33.1984C174.259 33.1984 174.505 33.161 174.745 33.0863C174.985 33.0115 175.237 32.8817 175.5 32.6968C175.764 32.5119 176.047 32.2621 176.35 31.9474C176.653 31.6327 176.993 31.2354 177.371 30.7554V22.8955H179.424V34.7444ZM193.315 28.6075C193.315 29.591 193.179 30.4702 192.908 31.2452C192.636 32.0202 192.251 32.6772 191.751 33.2161C191.252 33.7551 190.644 34.1681 189.928 34.4553C189.212 34.7425 188.405 34.8861 187.508 34.8861C186.808 34.8861 186.092 34.8192 185.36 34.6854C184.629 34.5517 183.905 34.3392 183.189 34.0481V18.0685H185.242V22.6594L185.148 24.8545C185.738 24.0599 186.37 23.4993 187.042 23.1728C187.715 22.8463 188.437 22.683 189.208 22.683C189.884 22.683 190.479 22.8246 190.99 23.1079C191.501 23.3911 191.93 23.7904 192.276 24.3058C192.622 24.8211 192.882 25.4427 193.055 26.1704C193.228 26.8982 193.315 27.7106 193.315 28.6075ZM191.214 28.7019C191.214 28.0804 191.169 27.51 191.078 26.9907C190.988 26.4714 190.844 26.0269 190.648 25.6571C190.451 25.2873 190.199 24.9981 189.892 24.7896C189.586 24.5811 189.22 24.4769 188.795 24.4769C188.535 24.4769 188.272 24.5182 188.004 24.6008C187.737 24.6834 187.459 24.8211 187.172 25.0139C186.885 25.2066 186.582 25.4623 186.263 25.781C185.945 26.0996 185.604 26.495 185.242 26.9671V32.7145C185.644 32.8719 186.053 32.9958 186.47 33.0863C186.887 33.1768 187.284 33.222 187.662 33.222C188.134 33.222 188.584 33.1473 189.013 32.9978C189.442 32.8483 189.82 32.5985 190.146 32.2484C190.473 31.8982 190.732 31.434 190.925 30.8558C191.118 30.2775 191.214 29.5595 191.214 28.7019ZM219.869 30.1299C219.869 30.8695 219.725 31.5245 219.438 32.0949C219.151 32.6654 218.742 33.1473 218.211 33.5407C217.68 33.9341 217.038 34.233 216.287 34.4376C215.536 34.6422 214.7 34.7444 213.779 34.7444H209.743V19.3195H214.157C217.595 19.3195 219.314 20.5705 219.314 23.0725C219.314 23.9065 219.116 24.6224 218.718 25.2204C218.321 25.8184 217.674 26.2629 216.777 26.554C217.194 26.6327 217.589 26.7664 217.963 26.9553C218.337 27.1441 218.665 27.388 218.948 27.687C219.232 27.986 219.456 28.34 219.621 28.7491C219.786 29.1583 219.869 29.6185 219.869 30.1299ZM217.131 23.3557C217.131 23.041 217.084 22.744 216.989 22.4647C216.895 22.1854 216.73 21.9454 216.494 21.7448C216.258 21.5441 215.939 21.3848 215.538 21.2668C215.136 21.1488 214.629 21.0898 214.015 21.0898H211.844V25.9167H213.944C214.424 25.9167 214.859 25.8656 215.248 25.7633C215.638 25.661 215.972 25.5036 216.252 25.2912C216.531 25.0788 216.747 24.8132 216.901 24.4946C217.054 24.1759 217.131 23.7963 217.131 23.3557ZM217.638 30.2008C217.638 29.8074 217.556 29.4533 217.391 29.1386C217.225 28.8239 216.985 28.5583 216.671 28.342C216.356 28.1256 215.972 27.9584 215.52 27.8404C215.068 27.7224 214.558 27.6634 213.992 27.6634H211.844V32.9742H214.062C215.266 32.9742 216.163 32.7499 216.753 32.3015C217.343 31.853 217.638 31.1528 217.638 30.2008ZM227.092 19.7562H223.586V18.0685H229.169V33.0332H232.697V34.7444H223.197V33.0332H227.092V19.7562ZM246.659 28.7255C246.659 29.6461 246.529 30.4899 246.269 31.257C246.01 32.0241 245.636 32.6811 245.148 33.2279C244.66 33.7747 244.066 34.1996 243.366 34.5025C242.666 34.8054 241.871 34.9569 240.982 34.9569C240.133 34.9569 239.371 34.8251 238.699 34.5615C238.026 34.2979 237.455 33.9104 236.987 33.399C236.519 32.8876 236.161 32.2543 235.913 31.499C235.666 30.7436 235.542 29.8742 235.542 28.8908C235.542 27.9702 235.671 27.1303 235.931 26.3711C236.191 25.6118 236.564 24.9588 237.052 24.412C237.54 23.8652 238.134 23.4403 238.834 23.1374C239.535 22.8345 240.329 22.683 241.218 22.683C242.068 22.683 242.829 22.8148 243.502 23.0784C244.175 23.342 244.745 23.7275 245.213 24.235C245.681 24.7424 246.039 25.3738 246.287 26.1291C246.535 26.8845 246.659 27.7499 246.659 28.7255ZM244.558 28.8199C244.558 28.0882 244.478 27.449 244.316 26.9022C244.155 26.3553 243.925 25.899 243.626 25.5332C243.327 25.1673 242.963 24.8919 242.534 24.707C242.105 24.5221 241.627 24.4297 241.1 24.4297C240.487 24.4297 239.961 24.5497 239.525 24.7896C239.088 25.0296 238.73 25.3502 238.451 25.7515C238.171 26.1527 237.967 26.6189 237.837 27.15C237.707 27.6811 237.642 28.2377 237.642 28.8199C237.642 29.5517 237.723 30.1929 237.884 30.7436C238.046 31.2944 238.276 31.7527 238.575 32.1185C238.874 32.4844 239.236 32.7598 239.66 32.9447C240.085 33.1296 240.565 33.222 241.1 33.222C241.714 33.222 242.239 33.102 242.676 32.8621C243.112 32.6221 243.47 32.3015 243.75 31.9002C244.029 31.4989 244.234 31.0328 244.363 30.5017C244.493 29.9706 244.558 29.41 244.558 28.8199ZM258.166 24.5713C258.386 24.8467 258.557 25.1673 258.679 25.5332C258.801 25.899 258.862 26.2944 258.862 26.7192C258.862 27.3329 258.75 27.8935 258.526 28.401C258.301 28.9085 257.985 29.3432 257.576 29.7051C257.166 30.067 256.677 30.3483 256.106 30.5489C255.536 30.7495 254.908 30.8499 254.224 30.8499C253.728 30.8499 253.264 30.7967 252.831 30.6905C252.398 30.5843 252.056 30.4525 251.804 30.2952C251.655 30.5155 251.529 30.724 251.427 30.9207C251.325 31.1174 251.273 31.3377 251.273 31.5816C251.273 31.8805 251.417 32.1284 251.704 32.3251C251.991 32.5218 252.371 32.628 252.843 32.6437L255.959 32.7617C256.549 32.7775 257.094 32.8522 257.593 32.986C258.093 33.1197 258.522 33.3125 258.88 33.5643C259.238 33.816 259.517 34.1268 259.718 34.4966C259.918 34.8664 260.019 35.2952 260.019 35.783C260.019 36.3101 259.904 36.8097 259.676 37.2818C259.448 37.7539 259.096 38.1689 258.62 38.5269C258.144 38.8849 257.54 39.1701 256.808 39.3825C256.077 39.595 255.207 39.7012 254.2 39.7012C253.24 39.7012 252.424 39.6245 251.751 39.4711C251.079 39.3176 250.526 39.1052 250.093 38.8338C249.66 38.5623 249.346 38.2397 249.149 37.866C248.952 37.4923 248.854 37.0812 248.854 36.6327C248.854 36.0584 248.988 35.5548 249.255 35.1221C249.523 34.6894 249.936 34.2724 250.494 33.8711C250.29 33.7767 250.113 33.6587 249.963 33.5171C249.814 33.3754 249.692 33.22 249.598 33.0509C249.503 32.8817 249.432 32.7027 249.385 32.5139C249.338 32.3251 249.314 32.1402 249.314 31.9592C249.314 31.4478 249.434 30.9797 249.674 30.5548C249.914 30.1299 250.199 29.7287 250.53 29.351C250.38 29.1701 250.249 28.993 250.135 28.8199C250.02 28.6469 249.922 28.46 249.839 28.2594C249.757 28.0587 249.694 27.8424 249.651 27.6103C249.607 27.3782 249.586 27.1126 249.586 26.8136C249.586 26.1999 249.698 25.6394 249.922 25.1319C250.146 24.6244 250.461 24.1897 250.866 23.8278C251.271 23.4659 251.759 23.1846 252.33 22.984C252.9 22.7833 253.531 22.683 254.224 22.683C254.515 22.683 254.794 22.7027 255.062 22.742C255.329 22.7814 255.565 22.8325 255.77 22.8955H260.066V24.5713H258.166ZM251.037 36.4557C251.037 37.0143 251.328 37.4215 251.911 37.6772C252.493 37.9329 253.303 38.0607 254.342 38.0607C254.995 38.0607 255.544 38.0017 255.988 37.8837C256.433 37.7657 256.791 37.6103 257.062 37.4175C257.334 37.2248 257.528 37.0045 257.646 36.7566C257.764 36.5088 257.823 36.2551 257.823 35.9954C257.823 35.5155 257.627 35.1614 257.233 34.9333C256.84 34.7051 256.238 34.5714 255.428 34.532L252.336 34.4258C252.076 34.5989 251.862 34.768 251.692 34.9333C251.523 35.0985 251.391 35.2657 251.297 35.4348C251.203 35.604 251.136 35.7732 251.096 35.9423C251.057 36.1115 251.037 36.2826 251.037 36.4557ZM251.663 26.7664C251.663 27.1441 251.726 27.4903 251.852 27.805C251.978 28.1197 252.155 28.3872 252.383 28.6075C252.611 28.8278 252.88 28.9989 253.191 29.1209C253.502 29.2428 253.846 29.3038 254.224 29.3038C254.633 29.3038 254.997 29.235 255.316 29.0973C255.634 28.9596 255.902 28.7727 256.118 28.5367C256.334 28.3007 256.5 28.0292 256.614 27.7224C256.728 27.4155 256.785 27.0969 256.785 26.7664C256.785 26.3888 256.722 26.0426 256.596 25.7279C256.47 25.4132 256.293 25.1457 256.065 24.9254C255.837 24.7051 255.567 24.5339 255.257 24.412C254.946 24.29 254.602 24.2291 254.224 24.2291C253.815 24.2291 253.451 24.2999 253.132 24.4415C252.814 24.5831 252.546 24.77 252.33 25.0021C252.113 25.2342 251.948 25.5036 251.834 25.8105C251.72 26.1173 251.663 26.436 251.663 26.7664Z" fill="white"/>
</svg>