<svg width="220" height="48" viewBox="0 0 220 48" fill="none" xmlns="http://www.w3.org/2000/svg">
<path d="M218.024 0C219.115 6.23172e-05 220 0.885227 220 1.97656V46.0234C220 47.1148 219.115 47.9999 218.024 48H168.622C167.53 48 166.645 47.1148 166.645 46.0234V1.97656C166.645 0.885189 167.53 0 168.622 0H218.024ZM203.401 34.4727V36.2178H214.072V34.4727H203.401ZM176.21 13.3525V28.8086C176.21 29.8672 176.361 30.8192 176.666 31.6641C176.97 32.5091 177.413 33.2278 177.994 33.8184C178.575 34.4089 179.276 34.8621 180.096 35.1777C180.917 35.4934 181.835 35.6504 182.849 35.6504C183.882 35.6504 184.804 35.4933 185.616 35.1777C186.427 34.8621 187.124 34.4088 187.705 33.8184C188.286 33.2278 188.729 32.5091 189.033 31.6641C189.337 30.8192 189.489 29.8672 189.489 28.8086V13.3525H185.339V28.7783C185.339 29.7148 185.118 30.4328 184.675 30.9316C184.233 31.4305 183.624 31.6797 182.849 31.6797C182.056 31.6797 181.443 31.4305 181.009 30.9316C180.576 30.4328 180.359 29.7149 180.359 28.7783V13.3525H176.21ZM192.892 13.3525V35.3457H197.042V27.0986H199.864C200.952 27.0986 201.93 26.9352 202.797 26.6094C203.663 26.2836 204.401 25.8257 205.009 25.2354C205.618 24.6449 206.089 23.9215 206.421 23.0664C206.752 22.2112 206.919 21.264 206.919 20.2256C206.919 19.1667 206.752 18.2142 206.421 17.3691C206.089 16.5243 205.618 15.8018 205.009 15.2012C204.401 14.6005 203.663 14.1418 202.797 13.8262C201.93 13.5106 200.952 13.3526 199.864 13.3525H192.892ZM199.864 17.1709C200.786 17.171 201.5 17.451 202.007 18.0107C202.515 18.5707 202.768 19.3093 202.768 20.2256C202.768 21.1418 202.515 21.8805 202.007 22.4404C201.5 23.0001 200.786 23.2802 199.864 23.2803H197.042V17.1709H199.864Z" fill="#94979C"/>
<path fill-rule="evenodd" clip-rule="evenodd" d="M124.08 16.01C124.67 16.01 125.149 15.8268 125.518 15.4602C125.887 15.0937 126.072 14.6049 126.072 13.994C126.072 13.4035 125.892 12.9198 125.532 12.5431C125.173 12.1664 124.698 11.978 124.107 11.978H123.388C122.798 11.978 122.323 12.1664 121.963 12.5431C121.604 12.9198 121.424 13.4035 121.424 13.994C121.424 14.6049 121.604 15.0937 121.963 15.4602C122.323 15.8268 122.798 16.01 123.388 16.01H124.08ZM6.77805 35.6507C7.81089 35.6507 8.7423 35.498 9.57226 35.1925C10.4022 34.8871 11.1123 34.4595 11.7025 33.9096C12.2927 33.3598 12.7492 32.698 13.0719 31.9242C13.3947 31.1504 13.5561 30.2849 13.5561 29.3278C13.5561 27.6376 13.1227 26.2173 12.2558 25.0667C11.389 23.9162 10.1256 23.0864 8.46564 22.5773L6.2524 21.9053C4.6478 21.3962 3.8455 20.4085 3.8455 18.9424C3.8455 18.1685 4.10372 17.5475 4.62014 17.0791C5.13656 16.6107 5.84664 16.3765 6.75038 16.3765C7.59879 16.3765 8.29965 16.6107 8.85296 17.0791C9.40627 17.5475 9.70137 18.1991 9.73825 19.034H13.2518C13.1596 17.1605 12.5371 15.6893 11.3844 14.6202C10.2316 13.5511 8.71463 13.0165 6.83338 13.0165C5.83742 13.0165 4.9429 13.1591 4.14982 13.4442C3.35675 13.7293 2.68355 14.1416 2.13024 14.6813C1.57693 15.2209 1.14812 15.8675 0.843798 16.6209C0.539477 17.3744 0.387317 18.2093 0.387317 19.1256C0.387317 22.4449 2.10258 24.6238 5.5331 25.6624L7.63568 26.3344C8.41031 26.5991 9.00973 27.0064 9.43394 27.5562C9.85814 28.106 10.0702 28.7576 10.0702 29.5111C10.0702 30.3664 9.78897 31.0485 9.22644 31.5576C8.66391 32.0667 7.87544 32.3213 6.86104 32.3213C5.88353 32.3213 5.09506 32.0718 4.49564 31.5729C3.89622 31.074 3.57807 30.3867 3.54118 29.5111H0C0.0368873 30.4478 0.225935 31.2929 0.567143 32.0464C0.90835 32.7998 1.37405 33.4464 1.96425 33.986C2.55445 34.5256 3.25992 34.938 4.08066 35.2231C4.9014 35.5082 5.80053 35.6507 6.77805 35.6507ZM23.3773 35.6507C24.1889 35.6507 24.9497 35.5438 25.6597 35.33C26.3698 35.1162 27.0061 34.8107 27.5687 34.4136C28.1312 34.0165 28.6061 33.5329 28.9934 32.9627C29.3808 32.3925 29.6574 31.7613 29.8234 31.0689H26.4205C26.1992 31.5576 25.8257 31.9293 25.3001 32.1838C24.7744 32.4384 24.1335 32.5656 23.3773 32.5656C22.3814 32.5656 21.6021 32.25 21.0396 31.6187C20.4771 30.9875 20.1958 30.1118 20.1958 28.9918V27.8922H29.9617V24.8376C29.9617 23.8398 29.805 22.9336 29.4914 22.1191C29.1779 21.3045 28.7352 20.6122 28.1635 20.042C27.5917 19.4718 26.9001 19.0289 26.0886 18.7133C25.277 18.3976 24.3733 18.2398 23.3773 18.2398C22.3814 18.2398 21.473 18.3925 20.6523 18.698C19.8315 19.0035 19.1353 19.4413 18.5635 20.0115C17.9918 20.5816 17.5491 21.274 17.2356 22.0885C16.9221 22.9031 16.7653 23.8093 16.7653 24.8071V29.0529C16.7653 30.0507 16.9221 30.9569 17.2356 31.7715C17.5491 32.586 17.9918 33.2784 18.5635 33.8485C19.1353 34.4187 19.8315 34.8616 20.6523 35.1773C21.473 35.4929 22.3814 35.6507 23.3773 35.6507ZM20.1958 25.3264H26.5589V24.8377C26.5589 23.7177 26.2822 22.8471 25.7289 22.226C25.1756 21.6049 24.3917 21.2944 23.3773 21.2944C22.3814 21.2944 21.6021 21.6049 21.0396 22.226C20.4771 22.8471 20.1958 23.7075 20.1958 24.8071V25.3264ZM37.7634 35.3453V24.8987C37.7634 23.8398 38.017 23.0049 38.5242 22.394C39.0314 21.7831 39.7276 21.4776 40.6129 21.4776C41.5536 21.4776 42.2913 21.778 42.8262 22.3787C43.361 22.9795 43.6285 23.8195 43.6285 24.8987V25.7845H47.2527V24.5627C47.2527 22.5875 46.7916 21.0398 45.8694 19.9198C44.9472 18.7998 43.6654 18.2398 42.0239 18.2398C40.8804 18.2398 39.9398 18.5198 39.202 19.0798C38.4643 19.6398 38.0032 20.4289 37.8187 21.4471H37.5697V18.5453H34.3052V35.3453H37.7634ZM63.935 18.5453L58.6509 35.3453H54.584L49.2169 18.5453H52.8134L56.0503 29.4195C56.1794 29.8268 56.2762 30.2188 56.3408 30.5955C56.4053 30.9722 56.4561 31.3031 56.4929 31.5882C56.5298 31.9344 56.5575 32.2602 56.5759 32.5657H56.7696C56.7696 32.2602 56.788 31.9344 56.8249 31.5882C56.8618 31.3031 56.9125 30.9722 56.9771 30.5955C57.0416 30.2188 57.1292 29.8268 57.2399 29.4195L60.3384 18.5453H63.935ZM73.1752 35.6507C73.9868 35.6507 74.7476 35.5438 75.4576 35.33C76.1677 35.1162 76.804 34.8107 77.3666 34.4136C77.9291 34.0165 78.404 33.5329 78.7913 32.9627C79.1786 32.3925 79.4553 31.7613 79.6213 31.0689H76.2184C75.9971 31.5576 75.6236 31.9293 75.098 32.1838C74.5723 32.4384 73.9314 32.5656 73.1752 32.5656C72.1793 32.5656 71.4 32.25 70.8375 31.6187C70.275 30.9875 69.9937 30.1118 69.9937 28.9918V27.8922H79.7596V24.8376C79.7596 23.8398 79.6029 22.9336 79.2893 22.1191C78.9758 21.3045 78.5331 20.6122 77.9614 20.042C77.3896 19.4718 76.698 19.0289 75.8865 18.7133C75.0749 18.3976 74.1712 18.2398 73.1752 18.2398C72.1793 18.2398 71.2709 18.3925 70.4502 18.698C69.6294 19.0035 68.9332 19.4413 68.3614 20.0115C67.7897 20.5816 67.347 21.274 67.0335 22.0885C66.7199 22.9031 66.5632 23.8093 66.5632 24.8071V29.0529C66.5632 30.0507 66.7199 30.9569 67.0335 31.7715C67.347 32.586 67.7897 33.2784 68.3614 33.8485C68.9332 34.4187 69.6294 34.8616 70.4502 35.1773C71.2709 35.4929 72.1793 35.6507 73.1752 35.6507ZM69.9937 25.3264H76.3568V24.8377C76.3568 23.7177 76.0801 22.8471 75.5268 22.226C74.9735 21.6049 74.1896 21.2944 73.1752 21.2944C72.1793 21.2944 71.4 21.6049 70.8375 22.226C70.275 22.8471 69.9937 23.7075 69.9937 24.8071V25.3264ZM87.5613 35.3453V24.8987C87.5613 23.8398 87.8149 23.0049 88.3221 22.394C88.8293 21.7831 89.5255 21.4776 90.4108 21.4776C91.3515 21.4776 92.0892 21.778 92.6241 22.3787C93.1589 22.9795 93.4264 23.8195 93.4264 24.8987V25.7845H97.0506V24.5627C97.0506 22.5875 96.5895 21.0398 95.6673 19.9198C94.7451 18.7998 93.4633 18.2398 91.8218 18.2398C90.6783 18.2398 89.7376 18.5198 88.9999 19.0798C88.2621 19.6398 87.8011 20.4289 87.6166 21.4471H87.3676V18.5453H84.1031V35.3453H87.5613ZM109.168 35.1925C108.338 35.498 107.407 35.6507 106.374 35.6507C105.396 35.6507 104.497 35.5082 103.676 35.2231C102.856 34.938 102.15 34.5256 101.56 33.986C100.97 33.4464 100.504 32.7998 100.163 32.0464C99.8217 31.2929 99.6327 30.4478 99.5958 29.5111H103.137C103.174 30.3867 103.492 31.074 104.091 31.5729C104.691 32.0718 105.479 32.3213 106.457 32.3213C107.471 32.3213 108.26 32.0667 108.822 31.5576C109.385 31.0485 109.666 30.3664 109.666 29.5111C109.666 28.7576 109.454 28.106 109.03 27.5562C108.606 27.0064 108.006 26.5991 107.231 26.3344L105.129 25.6624C101.698 24.6238 99.9831 22.4449 99.9831 19.1256C99.9831 18.2093 100.135 17.3744 100.44 16.6209C100.744 15.8675 101.173 15.2209 101.726 14.6813C102.279 14.1416 102.953 13.7293 103.746 13.4442C104.539 13.1591 105.433 13.0165 106.429 13.0165C108.31 13.0165 109.827 13.5511 110.98 14.6202C112.133 15.6893 112.755 17.1605 112.848 19.034H109.334C109.297 18.1991 109.002 17.5475 108.449 17.0791C107.895 16.6107 107.195 16.3765 106.346 16.3765C105.442 16.3765 104.732 16.6107 104.216 17.0791C103.7 17.5475 103.441 18.1685 103.441 18.9424C103.441 20.4085 104.244 21.3962 105.848 21.9053L108.061 22.5773C109.721 23.0864 110.985 23.9162 111.852 25.0667C112.718 26.2173 113.152 27.6376 113.152 29.3278C113.152 30.2849 112.99 31.1504 112.668 31.9242C112.345 32.698 111.888 33.3598 111.298 33.9096C110.708 34.4595 109.998 34.8871 109.168 35.1925ZM130.138 31.8631V35.3453H116.97V31.8631H122.42V21.9969H117.661V18.5453H125.74V31.8631H130.138ZM138.189 35.6508C139.296 35.6508 140.209 35.3657 140.928 34.7955C141.647 34.2253 142.09 33.4311 142.256 32.413H142.533V35.3453H145.853V13.0471H142.394V18.5453C142.394 18.81 142.399 19.1104 142.408 19.4464C142.417 19.7824 142.44 20.1031 142.477 20.4086L142.533 21.4471H142.256C142.09 20.4493 141.647 19.6653 140.928 19.0951C140.209 18.525 139.296 18.2399 138.189 18.2399C137.415 18.2399 136.704 18.3926 136.059 18.698C135.413 19.0035 134.86 19.4413 134.399 20.0115C133.938 20.5817 133.583 21.269 133.334 22.0733C133.085 22.8777 132.96 23.789 132.96 24.8071V28.9919C132.96 30.01 133.085 30.9315 133.334 31.7562C133.583 32.5809 133.938 33.2835 134.399 33.8639C134.86 34.4442 135.413 34.8871 136.059 35.1926C136.704 35.498 137.415 35.6508 138.189 35.6508ZM137.221 31.3897C137.756 32.0108 138.493 32.3213 139.434 32.3213C140.338 32.3213 141.057 32.0159 141.592 31.405C142.127 30.7941 142.394 29.9897 142.394 28.9919V24.8988C142.394 23.8806 142.122 23.0661 141.578 22.4552C141.034 21.8442 140.319 21.5388 139.434 21.5388C138.493 21.5388 137.756 21.8392 137.221 22.4399C136.686 23.0406 136.419 23.8602 136.419 24.8988V28.9002C136.419 29.9388 136.686 30.7686 137.221 31.3897ZM156.172 35.6507C156.983 35.6507 157.744 35.5438 158.454 35.33C159.164 35.1162 159.801 34.8107 160.363 34.4136C160.926 34.0165 161.401 33.5329 161.788 32.9627C162.175 32.3925 162.452 31.7613 162.618 31.0689H159.215C158.994 31.5576 158.62 31.9293 158.094 32.1838C157.569 32.4384 156.928 32.5656 156.172 32.5656C155.176 32.5656 154.397 32.25 153.834 31.6187C153.271 30.9875 152.99 30.1118 152.99 28.9918V27.8922H162.756V24.8376C162.756 23.8398 162.599 22.9336 162.286 22.1191C161.972 21.3045 161.53 20.6122 160.958 20.042C160.386 19.4718 159.694 19.0289 158.883 18.7133C158.071 18.3976 157.168 18.2398 156.172 18.2398C155.176 18.2398 154.267 18.3925 153.447 18.698C152.626 19.0035 151.93 19.4413 151.358 20.0115C150.786 20.5816 150.344 21.274 150.03 22.0885C149.716 22.9031 149.56 23.8093 149.56 24.8071V29.0529C149.56 30.0507 149.716 30.9569 150.03 31.7715C150.344 32.586 150.786 33.2784 151.358 33.8485C151.93 34.4187 152.626 34.8616 153.447 35.1773C154.267 35.4929 155.176 35.6507 156.172 35.6507ZM152.99 25.3264H159.353V24.8377C159.353 23.7177 159.077 22.8471 158.523 22.226C157.97 21.6049 157.186 21.2944 156.172 21.2944C155.176 21.2944 154.397 21.6049 153.834 22.226C153.271 22.8471 152.99 23.7075 152.99 24.8071V25.3264Z" fill="#94979C"/>
</svg>
